<?xml version="1.0" encoding="UTF-8"?>
<!DOCTYPE svg PUBLIC "-//W3C//DTD SVG 1.1//EN" "http://www.w3.org/Graphics/SVG/1.1/DTD/svg11.dtd">
<svg xmlns="http://www.w3.org/2000/svg" version="1.1" width="512px" height="512px" style="shape-rendering:geometricPrecision; text-rendering:geometricPrecision; image-rendering:optimizeQuality; fill-rule:evenodd; clip-rule:evenodd" xmlns:xlink="http://www.w3.org/1999/xlink">
<g><path style="opacity:0.987" fill="#010101" d="M 238.5,-0.5 C 249.833,-0.5 261.167,-0.5 272.5,-0.5C 339.966,11.1268 382.466,50.1268 400,116.5C 408.594,161.881 398.761,202.714 370.5,239C 387.167,239.333 403.833,239.667 420.5,240C 434.323,244.499 442.49,253.999 445,268.5C 467.105,336.978 489.271,405.311 511.5,473.5C 511.5,478.5 511.5,483.5 511.5,488.5C 507.5,499.833 499.833,507.5 488.5,511.5C 333.167,511.5 177.833,511.5 22.5,511.5C 11.1667,507.5 3.5,499.833 -0.5,488.5C -0.5,483.5 -0.5,478.5 -0.5,473.5C 21.7286,405.311 43.8952,336.978 66,268.5C 68.51,253.999 76.6767,244.499 90.5,240C 107.167,239.667 123.833,239.333 140.5,239C 106.293,193.191 99.1259,143.358 119,89.5C 142.97,38.3548 182.803,8.3548 238.5,-0.5 Z"/></g>
<g><path style="opacity:1" fill="#fd5c5c" d="M 241.5,19.5 C 296.538,17.0771 338.371,39.0771 367,85.5C 388.083,127.786 387.416,169.786 365,211.5C 329.425,259.239 292.925,306.239 255.5,352.5C 220.195,308.569 185.362,264.235 151,219.5C 123.362,175.267 121.362,129.934 145,83.5C 167.267,47.2803 199.434,25.947 241.5,19.5 Z"/></g>
<g><path style="opacity:1" fill="#040202" d="M 244.5,60.5 C 281.568,58.2833 310.068,72.6166 330,103.5C 347.451,137.838 344.784,170.505 322,201.5C 297.076,229.023 266.576,238.189 230.5,229C 187.835,212.526 167.669,181.359 170,135.5C 178.35,93.9832 203.184,68.9832 244.5,60.5 Z"/></g>
<g><path style="opacity:1" fill="#fdfdfd" d="M 246.5,80.5 C 286.315,79.4692 311.148,98.1359 321,136.5C 323.535,165.619 312.701,188.119 288.5,204C 254.826,219.87 225.993,213.703 202,185.5C 182.898,154.12 185.731,124.953 210.5,98C 221.126,89.186 233.126,83.3527 246.5,80.5 Z"/></g>
<g><path style="opacity:1" fill="#35d18e" d="M 94.5,259.5 C 115.503,259.333 136.503,259.5 157.5,260C 184.833,295 212.167,330 239.5,365C 222.911,371.53 206.245,377.863 189.5,384C 143.168,384.5 96.8345,384.667 50.5,384.5C 62.4893,345.364 74.9893,306.364 88,267.5C 89.3046,264.039 91.4713,261.372 94.5,259.5 Z"/></g>
<g><path style="opacity:1" fill="#35d08e" d="M 353.5,259.5 C 374.503,259.333 395.503,259.5 416.5,260C 419.728,261.563 421.895,264.063 423,267.5C 426.386,275.974 428.719,284.641 430,293.5C 382.036,312.152 333.869,329.985 285.5,347C 308.764,318.244 331.43,289.077 353.5,259.5 Z"/></g>
<g><path style="opacity:1" fill="#fbfbfb" d="M 99.5,437.5 C 92.8333,437.5 86.1667,437.5 79.5,437.5C 77.2789,427.477 71.6123,424.977 62.5,430C 60.3069,432.025 59.3069,434.525 59.5,437.5C 50.8333,437.5 42.1667,437.5 33.5,437.5C 36.2229,426.664 39.5562,415.997 43.5,405.5C 93.4967,404.667 143.497,404.167 193.5,404C 274.461,373.402 355.461,342.902 436.5,312.5C 440.332,319.659 442.999,327.326 444.5,335.5C 414.01,346.164 383.676,357.331 353.5,369C 348.437,372.87 347.27,377.704 350,383.5C 377.691,419.024 405.191,454.691 432.5,490.5C 424.187,491.665 415.853,491.832 407.5,491C 381.303,457.437 355.47,423.603 330,389.5C 327.795,386.96 325.295,384.793 322.5,383C 320.167,382.333 317.833,382.333 315.5,383C 276.833,397.667 238.167,412.333 199.5,427C 168.167,427.333 136.833,427.667 105.5,428C 101.844,430.149 99.8444,433.316 99.5,437.5 Z"/></g>
<g><path style="opacity:1" fill="#b0eebd" d="M 447.5,354.5 C 449.451,354.227 450.951,354.893 452,356.5C 465,396.833 478,437.167 491,477.5C 492.426,484.247 489.926,488.747 483.5,491C 475.167,491.667 466.833,491.667 458.5,491C 430.5,455 402.5,419 374.5,383C 398.892,373.464 423.225,363.964 447.5,354.5 Z"/></g>
<g><path style="opacity:1" fill="#fec56b" d="M 33.5,437.5 C 42.1667,437.5 50.8333,437.5 59.5,437.5C 61.7808,446.138 67.1141,448.638 75.5,445C 78.0244,443.117 79.3577,440.617 79.5,437.5C 86.1667,437.5 92.8333,437.5 99.5,437.5C 100.132,442.305 102.799,445.472 107.5,447C 138.833,447.667 170.167,447.667 201.5,447C 239.834,432.651 278.168,418.651 316.5,405C 338.359,433.358 360.025,461.858 381.5,490.5C 263.168,491.667 144.835,491.833 26.5,491C 21.9643,488.965 19.6309,485.465 19.5,480.5C 23.3973,465.81 28.0639,451.477 33.5,437.5 Z"/></g>
<g><path style="opacity:1" fill="#090806" d="M 79.5,437.5 C 79.3577,440.617 78.0244,443.117 75.5,445C 67.1141,448.638 61.7808,446.138 59.5,437.5C 59.3069,434.525 60.3069,432.025 62.5,430C 71.6123,424.977 77.2789,427.477 79.5,437.5 Z"/></g>
</svg>
